<svg id="Layer_1" data-name="Layer 1" xmlns="http://www.w3.org/2000/svg" viewBox="0 0 60 150"><defs><style>.cls-1{fill:#e5d1dc;}.cls-2{fill:#e2e0e1;}.cls-3{fill:#ededed;}</style></defs><title>Artboard 1</title><polygon class="cls-1" points="55.38 48.39 50.77 48.39 50.77 53.23 55.38 53.23 55.38 58.06 55.38 62.9 55.38 67.74 60 67.74 60 62.9 60 58.06 60 53.23 60 48.39 55.38 48.39"/><polygon class="cls-1" points="50.77 96.77 50.77 101.61 55.38 101.61 55.38 96.77 55.38 91.94 55.38 87.1 50.77 87.1 50.77 91.94 50.77 96.77"/><polygon class="cls-2" points="55.38 43.55 50.77 43.55 46.15 43.55 41.54 43.55 36.92 43.55 36.92 38.71 32.31 38.71 27.69 38.71 27.69 43.55 23.08 43.55 18.46 43.55 13.85 43.55 9.23 43.55 9.23 48.39 13.85 48.39 18.46 48.39 23.08 48.39 23.08 53.23 23.08 58.06 27.69 58.06 27.69 53.23 32.31 53.23 36.92 53.23 36.92 48.39 41.54 48.39 46.15 48.39 50.77 48.39 55.38 48.39 55.38 43.55"/><rect class="cls-1" x="41.54" y="106.45" width="4.61" height="4.84"/><polygon class="cls-1" points="36.92 116.13 32.31 116.13 32.31 120.97 36.92 120.97 36.92 125.81 41.54 125.81 41.54 120.97 41.54 116.13 41.54 111.29 36.92 111.29 36.92 116.13"/><rect class="cls-3" x="36.92" y="67.74" width="4.62" height="4.84"/><polygon class="cls-1" points="36.92 53.23 32.31 53.23 27.69 53.23 27.69 58.06 32.31 58.06 32.31 62.9 32.31 67.74 36.92 67.74 36.92 62.9 36.92 58.06 41.54 58.06 41.54 53.23 41.54 48.39 36.92 48.39 36.92 53.23"/><polygon class="cls-3" points="41.54 43.55 46.15 43.55 50.77 43.55 50.77 38.71 46.15 38.71 41.54 38.71 36.92 38.71 36.92 43.55 41.54 43.55"/><polygon class="cls-1" points="36.92 38.71 36.92 33.87 32.31 33.87 27.69 33.87 27.69 38.71 32.31 38.71 36.92 38.71"/><polygon class="cls-2" points="36.92 33.87 41.54 33.87 41.54 29.03 41.54 24.19 36.92 24.19 36.92 22.96 32.31 22.96 27.69 22.96 27.69 24.19 23.08 24.19 23.08 29.03 27.69 29.03 27.69 33.87 32.31 33.87 36.92 33.87"/><polygon class="cls-1" points="27.69 77.42 27.69 82.26 27.69 87.1 32.31 87.1 32.31 82.26 32.31 77.42 27.69 77.42"/><polygon class="cls-2" points="32.31 62.9 32.31 58.06 27.69 58.06 27.69 62.9 27.69 67.74 27.69 72.58 23.08 72.58 23.08 77.42 18.46 77.42 18.46 82.26 18.46 87.1 18.46 91.94 18.46 96.77 23.08 96.77 23.08 91.94 23.08 87.1 27.69 87.1 27.69 82.26 27.69 77.42 32.31 77.42 32.31 82.26 36.92 82.26 36.92 87.1 41.54 87.1 41.54 91.94 46.15 91.94 46.15 96.77 46.15 101.61 46.15 106.45 50.77 106.45 50.77 101.61 50.77 96.77 50.77 91.94 50.77 87.1 50.77 82.26 46.15 82.26 46.15 77.42 46.15 72.58 41.54 72.58 36.92 72.58 36.92 67.74 32.31 67.74 32.31 62.9"/><polygon class="cls-2" points="27.69 19.35 27.69 21.96 32.31 21.96 36.92 21.96 36.92 19.35 36.92 14.52 32.31 14.52 32.31 19.35 27.69 19.35"/><polygon class="cls-1" points="23.08 91.94 23.08 96.77 27.69 96.77 27.69 91.94 27.69 87.1 23.08 87.1 23.08 91.94"/><rect class="cls-3" x="23.08" y="67.74" width="4.61" height="4.84"/><rect class="cls-1" x="23.08" y="29.03" width="4.61" height="4.84"/><rect class="cls-3" x="23.08" y="22.96" width="4.61" height="1.23"/><polygon class="cls-3" points="27.69 19.35 32.31 19.35 32.31 14.52 27.69 14.52 23.08 14.52 23.08 19.35 23.08 21.96 27.69 21.96 27.69 19.35"/><polygon class="cls-1" points="18.46 101.61 18.46 106.45 23.08 106.45 23.08 101.61 23.08 96.77 18.46 96.77 18.46 101.61"/><rect class="cls-3" x="18.46" y="72.58" width="4.62" height="4.84"/><polygon class="cls-1" points="13.85 111.29 13.85 116.13 18.46 116.13 18.46 111.29 18.46 106.45 13.85 106.45 13.85 111.29"/><polygon class="cls-3" points="18.46 96.77 18.46 91.94 18.46 87.1 18.46 82.26 18.46 77.42 13.85 77.42 13.85 82.26 13.85 87.1 13.85 91.94 13.85 96.77 13.85 101.61 13.85 106.45 18.46 106.45 18.46 101.61 18.46 96.77"/><polygon class="cls-3" points="18.46 43.55 23.08 43.55 27.69 43.55 27.69 38.71 23.08 38.71 18.46 38.71 13.85 38.71 9.23 38.71 9.23 43.55 13.85 43.55 18.46 43.55"/><polygon class="cls-1" points="9.23 120.97 9.23 125.81 13.85 125.81 13.85 120.97 13.85 116.13 9.23 116.13 9.23 120.97"/><polygon class="cls-2" points="13.85 106.45 9.23 106.45 9.23 111.29 9.23 116.13 13.85 116.13 13.85 111.29 13.85 106.45"/><polygon class="cls-1" points="4.62 130.65 4.62 135.48 4.62 140.32 9.23 140.32 9.23 135.48 9.23 130.65 9.23 125.81 4.62 125.81 4.62 130.65"/><rect class="cls-1" x="4.62" y="48.39" width="4.61" height="4.84"/><rect class="cls-3" x="4.62" y="43.55" width="4.61" height="4.84"/><polygon class="cls-1" points="0 58.06 0 62.9 0 67.74 4.62 67.74 4.62 62.9 4.62 58.06 4.62 53.23 0 53.23 0 58.06"/><rect class="cls-3" y="48.39" width="4.62" height="4.84"/><polygon points="32.31 22.96 36.92 22.96 37 22.96 37 21.96 36.92 21.96 32.31 21.96 27.69 21.96 23.08 21.96 23 21.96 23 22.96 23.08 22.96 27.69 22.96 32.31 22.96"/></svg>